<?xml version="1.0" standalone="no"?>
<!DOCTYPE svg PUBLIC "-//W3C//DTD SVG 20010904//EN"
 "http://www.w3.org/TR/2001/REC-SVG-20010904/DTD/svg10.dtd">
<svg version="1.0" xmlns="http://www.w3.org/2000/svg"
 width="303.000000pt" height="303.000000pt" viewBox="0 0 303.000000 303.000000"
 preserveAspectRatio="xMidYMid meet">
<metadata>
Created by potrace 1.14, written by Peter Selinger 2001-2017
</metadata>
<g transform="translate(0.000000,303.000000) scale(0.100000,-0.100000)"
fill="#000000" stroke="none">
<path d="M1440 3015 c-13 -15 -15 -71 -14 -334 0 -301 1 -318 21 -356 113
-215 424 -135 423 110 -1 108 -104 215 -209 217 -46 0 -102 -11 -118 -24 -7
-6 -13 -9 -14 -7 -3 10 -6 295 -3 300 5 10 125 -10 194 -32 138 -45 256 -123
341 -226 91 -111 163 -314 175 -497 11 -161 28 -144 -138 -140 -298 7 -665 7
-718 0 -211 -28 -405 -118 -558 -261 -61 -57 -162 -185 -162 -205 0 -5 -4 -10
-8 -10 -18 0 -92 -175 -124 -295 -17 -65 -22 -110 -22 -235 -1 -179 19 -274
84 -416 181 -392 564 -615 1030 -600 286 10 516 114 693 315 66 76 148 232
173 331 9 36 18 74 21 85 3 11 6 76 8 145 6 262 -72 477 -234 639 -150 150
-367 212 -573 165 -116 -27 -233 -97 -317 -191 -58 -64 -123 -190 -139 -267
-15 -72 -12 -207 5 -274 47 -183 198 -326 388 -369 39 -8 143 -4 186 7 166 45
289 190 305 358 8 83 -30 125 -80 89 -12 -9 -18 -30 -21 -70 -6 -111 -70 -204
-175 -255 -47 -23 -68 -27 -140 -27 -76 0 -93 4 -152 33 -275 135 -307 511
-63 745 187 180 509 174 703 -13 93 -89 145 -189 193 -365 22 -80 17 -302 -9
-397 -83 -303 -305 -500 -647 -573 -62 -14 -271 -13 -350 1 -319 56 -567 234
-700 502 -148 299 -116 660 83 942 113 160 274 273 479 337 l88 28 487 0 c267
0 490 4 494 8 20 20 20 207 -1 347 -8 57 -42 181 -67 244 -112 285 -389 477
-723 502 -70 5 -83 4 -95 -11z m270 -481 c56 -33 73 -93 46 -159 -50 -118
-226 -80 -226 50 0 98 98 157 180 109z"/>
</g>
</svg>
